<?xml version="1.0" encoding="UTF-8"?>
<svg id="Calque_1" data-name="Calque 1" xmlns="http://www.w3.org/2000/svg" viewBox="0 0 817.23 1005.52">
  <defs>
    <style>
      .cls-1 {
        fill: #1d1d1b;
      }
    </style>
  </defs>
  <circle class="cls-1" cx="409.38" cy="109.01" r="109.01"/>
  <path class="cls-1" d="M88.69,225.3c45.5,14.55,153.11,46.36,240.63,52.07,13.13.86,26.23,2.01,39.29,3.59,27.52,3.33,87.79,6.57,175.34-10.93,89.19-17.84,161.16-37.12,194.04-46.39,20.28-5.72,42.25-2.02,59.03,10.73,13.06,9.92,23.35,25.54,19.36,49.81-3.17,19.27-14.46,36.26-30.66,47.18-8.31,5.6-17.51,11.5-22.5,13.72-9.56,4.25-140.46,43.17-190.23,67.88-6.89,3.42-14.07,6.21-21.42,8.5s-13.47,7.46-13.47,15.08c0,10.55,8.21,148.91,16.42,181.74,8.21,32.83,41.04,201.68,41.04,201.68l19.13,105.23c4.23,23.28-2.63,47.43-19.14,64.38-13.44,13.79-33.12,22.73-60.15,9.45-23.71-11.65-40.21-34.17-44.97-60.16-13.48-73.65-48.53-264.65-71.7-298.65-1.34-1.97-3.32-3.4-5.59-4.13h0c-5.54-1.76-11.48,1.18-13.43,6.65-12.94,36.28-57.89,168.15-79.73,306.61-3.91,24.82-21.44,45.61-45.56,52.63-9.94,2.89-21.16,3.53-33.12-.3-27.69-8.87-44.07-37.43-38.79-66.02,18.85-102.07,78.58-429.01,76.82-464.39-.21-4.12-.32-8.26-.15-12.38.66-16.41,2.41-24.19-2.55-31.13-5.86-8.21-14.07-23.45-29.31-24.62-12.81-.99-152.42-46.72-209.81-72.42-20.57-9.21-35.03-28.61-37.2-51.04-1.59-16.38,3.34-34.65,25.84-47.83,18.9-11.06,41.72-13.2,62.57-6.53Z"/>
</svg>