<?xml version="1.0" encoding="UTF-8"?>
<svg id="Calque_2" data-name="Calque 2" xmlns="http://www.w3.org/2000/svg" viewBox="0 0 32 32">
  <defs>
    <style>
      .cls-1 {
        fill: #1d1d1b;
      }

      .cls-2 {
        fill: #fff;
      }
    </style>
  </defs>
  <g>
    <circle class="cls-2" cx="16" cy="17.37" r="1.65"/>
    <path class="cls-1" d="M16,19.52c-1.19,0-2.15-.96-2.15-2.15s.96-2.15,2.15-2.15,2.15.96,2.15,2.15-.96,2.15-2.15,2.15ZM16,16.23c-.63,0-1.15.52-1.15,1.15s.52,1.15,1.15,1.15,1.15-.52,1.15-1.15-.52-1.15-1.15-1.15Z"/>
  </g>
  <rect class="cls-1" x="2.38" y="1.1" width="1.84" height="4.31" rx=".92" ry=".92" transform="translate(7.78 2.02) rotate(120)"/>
  <rect class="cls-1" x="1.53" y="8.42" width="1.6" height="4.31" rx=".8" ry=".8" transform="translate(12.9 8.25) rotate(90)"/>
  <rect class="cls-1" x="2.5" y="15.74" width="1.6" height="4.31" rx=".8" ry=".8" transform="translate(17.14 6.08) rotate(60)"/>
  <rect class="cls-1" x="27.63" y="1.14" width="1.84" height="4.31" rx=".92" ry=".92" transform="translate(17.12 -23.08) rotate(60)"/>
  <rect class="cls-1" x="28.73" y="8.46" width="1.6" height="4.31" rx=".8" ry=".8" transform="translate(40.14 -18.92) rotate(90)"/>
  <rect class="cls-1" x="27.75" y="15.77" width="1.6" height="4.31" rx=".8" ry=".8" transform="translate(58.35 2.15) rotate(120)"/>
  <rect class="cls-1" x="10.6" y="28.03" width="10.88" height="1.38" rx=".62" ry=".62"/>
  <path class="cls-1" d="M20.59,26.46h-9.1c-.77,0-1.39-.62-1.39-1.39v-1.11c0-.77.62-1.39,1.39-1.39h9.1c.77,0,1.39.62,1.39,1.39v1.11c0,.77-.62,1.39-1.39,1.39ZM11.49,23.56c-.22,0-.39.18-.39.39v1.11c0,.22.18.39.39.39h9.1c.22,0,.39-.18.39-.39v-1.11c0-.22-.18-.39-.39-.39h-9.1Z"/>
  <path class="cls-1" d="M14.71,16.28l-.14-.39c-.07-.19-.64-1.86.08-2.88l.13-.18c1.95-2.71,2.33-3.66,2.38-3.98.03-.19-.39-.41-1.03-.53-.22-.04-.44.06-.55.25-.35.64-.87,1.52-1.35,2.11-.25.31-.59.49-.98.52-.88.05-1.71-.72-1.8-.8l-.12-.18c-.03-.06-.62-1.58.17-3.13.62-1.21,1.88-2.08,3.76-2.56,1.1-.28,2.11-.16,2.99.38,1.71,1.05,2.34,3.31,2.49,3.97.24,1.04-.03,2.2-.74,3.17-.56.78-1.38,1.64-1.65,1.92-.6.68-.68,1.46-.68,1.47l-.04.39-2.94.44ZM16.03,7.31c.1,0,.19,0,.29.03,1.78.34,1.91,1.2,1.83,1.68-.13.75-.94,2.14-2.56,4.4l-.12.17c-.27.39-.18,1.1-.07,1.59l1.36-.2c.09-.4.31-1.03.79-1.58l.09-.09c.26-.27,1.04-1.09,1.56-1.81.54-.74.75-1.61.58-2.36-.13-.57-.66-2.5-2.04-3.34-.64-.39-1.39-.48-2.22-.27-1.59.41-2.64,1.1-3.12,2.04-.48.95-.26,1.9-.17,2.2.23.19.65.47.96.45.07,0,.16-.03.26-.15.45-.56.98-1.47,1.25-1.97.27-.49.78-.78,1.32-.78Z"/>
  <path class="cls-1" d="M17.04,31.97c-2.41,0-4.92-.88-5.08-.93l-.31-.11-.53-8.68c-.46-.55-2.35-2.79-3.5-4.01-1.56-1.65-2.24-6.67-2.11-9.51.15-3.23,2.7-5.15,2.81-5.23l.6.8s-2.28,1.74-2.4,4.48c-.14,2.95.65,7.53,1.83,8.78,1.33,1.41,3.56,4.07,3.65,4.18l.1.13.51,8.35c1.78.57,5.72,1.43,7.23-.04v-8.75l.17-.15s4.76-4.3,5.43-7.81c.62-3.29-1.45-8.15-1.76-8.84-.47-.45-3.43-3.19-6.04-3.31-2.92-.13-4.42.32-4.44.33l-.3-.95c.07-.02,1.67-.52,4.79-.37,3.22.15,6.63,3.52,6.77,3.67l.1.14c.11.23,2.59,5.68,1.87,9.52-.66,3.5-4.69,7.4-5.58,8.22v8.69l-.12.14c-.84.98-2.24,1.29-3.68,1.29Z"/>
</svg>