<?xml version="1.0" encoding="UTF-8"?>
<svg id="Calque_2" data-name="Calque 2" xmlns="http://www.w3.org/2000/svg" viewBox="0 0 49 49">
  <defs>
    <style>
      .cls-1 {
        fill: #161615;
      }
    </style>
  </defs>
  <path class="cls-1" d="M34.09,19.18s-2.25-4.79-1.55-5.77,3.24-1.41,3.94-1.13,2.25,2.25,2.25,2.25l.18,1.1c.25,1.59.63,4.12.13,5.64l-7.75,21.09-6.79-15.49-5.9,16.37-9.71-26.04-1.27-.28.84-1.83h8.11s.9.55.23,1-2.45.69-2.45.69l5.88,17.6,3.66-10.51-2.44-7.09-2.25-.23s-1.13-1.13.19-1.36c1.31.23,9.62.14,9.62.14,0,0,1.08,1.03-.09,1.22s-2.21.19-2.21.19l6.01,17.6,2.96-10.09s-.66-4.41-1.6-5.07Z"/>
  <path class="cls-1" d="M24.5,43.67c-10.57,0-19.17-8.6-19.17-19.17S13.93,5.33,24.5,5.33s19.17,8.6,19.17,19.17-8.6,19.17-19.17,19.17ZM24.5,6.33C14.48,6.33,6.33,14.48,6.33,24.5s8.15,18.17,18.17,18.17,18.17-8.15,18.17-18.17S34.52,6.33,24.5,6.33Z"/>
</svg>