<?xml version="1.0" encoding="UTF-8"?>
<svg id="Calque_2" data-name="Calque 2" xmlns="http://www.w3.org/2000/svg" viewBox="0 0 41.21 50.16">
  <defs>
    <style>
      .cls-1 {
        fill: #161615;
      }
    </style>
  </defs>
  <ellipse class="cls-1" cx="20.61" cy="5.7" rx="20.61" ry="5.7"/>
  <path class="cls-1" d="M0,32.35v10.98s.49,5.31,18.22,6.67,22.99-6.39,22.99-6.39v-10.56s-6.4,6.76-20.61,6.05S0,32.35,0,32.35"/>
  <path class="cls-1" d="M0,19.96v10.98s.49,5.31,18.22,6.67,22.99-6.39,22.99-6.39v-10.56s-6.4,6.76-20.61,6.05S0,19.96,0,19.96"/>
  <path class="cls-1" d="M0,7.45v10.98s.49,5.31,18.22,6.67,22.99-6.39,22.99-6.39v-10.56s-6.4,6.76-20.61,6.05S0,7.45,0,7.45"/>
</svg>