<?xml version="1.0" encoding="UTF-8"?>
<svg id="Calque_1" data-name="Calque 1" xmlns="http://www.w3.org/2000/svg" viewBox="0 0 36.41 29.05">
  <defs>
    <style>
      .cls-1 {
        fill: #161615;
      }

      .cls-2 {
        fill: #fff;
      }
    </style>
  </defs>
  <g>
    <rect class="cls-1" x=".5" y=".5" width="6.29" height="27.64"/>
    <path class="cls-2" d="M7.29,28.64H0V0h7.29v28.64ZM1,27.64h5.29V1H1v26.64Z"/>
  </g>
  <g>
    <path class="cls-1" d="M6.2,2.89s13.34-1.31,11.96,6.78-11.96,6.03-11.96,6.03"/>
    <path class="cls-2" d="M9.06,16.43c-1.64,0-2.86-.23-2.96-.25l.19-.98c.05.01,5.4,1.01,8.76-1.32,1.41-.98,2.29-2.43,2.61-4.3.27-1.6-.04-2.86-.97-3.85-2.85-3.05-10.38-2.35-10.45-2.35l-.1-1c.33-.03,8.1-.75,11.28,2.66,1.13,1.22,1.55,2.8,1.22,4.7-.37,2.15-1.39,3.82-3.03,4.96-2.02,1.4-4.59,1.72-6.56,1.72Z"/>
  </g>
  <g>
    <path class="cls-1" d="M33.8,12.94l1.13-4.43s-12.11-3.8-13.8,4.43c0,2.32,0,4.79,3.24,6.48s5.07,1.9,5.07,1.9c0,0,1.69,2.25-.84,2.39s-5.7.14-6.76-1.27c-.7,2.89-1.06,4.72-1.06,4.72l1.2.56s11.19,3.38,13.51-3.66-5.84-8.73-5.84-8.73c0,0-3.38-.7-2.25-2.04s1.48-2.11,6.41-.35Z"/>
    <path class="cls-2" d="M27.71,29.05c-2.99,0-5.65-.78-5.88-.85l-1.62-.75.07-.38s.36-1.88,1.06-4.74l.25-1.03.64.85c1.02,1.36,4.88,1.15,6.33,1.07.48-.03.81-.14.89-.32.12-.25-.09-.76-.31-1.11-.6-.11-2.34-.53-5.01-1.92-3.51-1.83-3.51-4.53-3.51-6.92v-.1c.42-2.01,1.46-3.52,3.09-4.49,4.26-2.51,11.06-.42,11.35-.32l.45.14-1.38,5.43-.52-.19c-4.38-1.57-4.8-1.06-5.71.03l-.15.17c-.09.11-.13.19-.11.25.12.35,1.19.8,2.08.98.17.03,4.15.89,5.88,3.88.91,1.57,1.02,3.42.33,5.49-1.28,3.89-4.97,4.83-8.26,4.83ZM21.35,26.88l.84.4s10.69,3.13,12.83-3.36c.59-1.79.51-3.36-.25-4.67-1.5-2.6-5.18-3.4-5.22-3.41-.41-.08-2.45-.56-2.82-1.64-.1-.28-.13-.73.29-1.22l.14-.17c1.15-1.39,1.93-2.01,6.29-.51l.87-3.43c-1.56-.41-6.81-1.57-10.09.36-1.37.8-2.24,2.07-2.6,3.78,0,2.29.02,4.44,2.97,5.98,3.09,1.61,4.88,1.84,4.9,1.85l.21.03.13.17c.1.13.97,1.34.52,2.29-.25.55-.84.85-1.74.9-2.44.14-5.03.12-6.5-.83-.4,1.67-.66,2.91-.78,3.5Z"/>
  </g>
  <g>
    <path class="cls-2" d="M6.79,4.9c4.14,0,7.49,1.81,7.49,4.04s-3.35,4.04-7.49,4.04"/>
    <path class="cls-1" d="M6.79,13.49v-1c3.79,0,6.99-1.62,6.99-3.54s-3.2-3.54-6.99-3.54v-1c4.48,0,7.99,2,7.99,4.54s-3.51,4.54-7.99,4.54Z"/>
  </g>
</svg>