<?xml version="1.0" encoding="UTF-8"?>
<svg id="Calque_2" data-name="Calque 2" xmlns="http://www.w3.org/2000/svg" viewBox="0 0 50 50">
  <defs>
    <style>
      .cls-1 {
        fill: #161615;
      }

      .cls-2 {
        fill: #010201;
      }
    </style>
  </defs>
  <path class="cls-1" d="M27.36,22.97h-5.02v17.6s-2.49,3.28-5.44-1.17l-3.52,2.34s1.92,4.7,6.57,4.42,6.48-3.05,6.48-3.05l.66-2.25.28-17.88Z"/>
  <path class="cls-2" d="M40.92,28.42l3.75-2.21s-1.69-4.41-8.21-3.71c-5.5.59-5.53,6.62-5.4,8.5.03.38.12.76.37,1.06.99,1.18,2.92,3.19,6.91,4.38,4.9,1.47,1.88,5.02,1.88,5.02,0,0,0,0,0,0,0,0-4.22,1.4-6.38-2.39,0,0,0,0,0,0-3.33,1.41-4.17,2.06-4.17,2.06,0,0,3.48,4.8,8.26,4.85,5.19.05,7.86-2.16,8.21-5.88.25-2.6-.9-4.26-1.36-4.96-.16-.24-.37-.44-.61-.59-1.17-.74-5.1-3.42-6.76-3.87-1.44-.4-1.36-.89-1.36-.89,0,0-.66-1.92.09-2.49s1.73-.92,3-.8c1.13.11,1.78,1.92,1.78,1.92Z"/>
</svg>