<?xml version="1.0" encoding="UTF-8"?>
<svg id="Calque_2" data-name="Calque 2" xmlns="http://www.w3.org/2000/svg" viewBox="0 0 50 50">
  <defs>
    <style>
      .cls-1 {
        fill: #161615;
      }
    </style>
  </defs>
  <path class="cls-1" d="M16.85,20.2h-5.68l-2.35,10.89h2.82l.47-2.82,4.36-.19s2.96-.56,3.38-3.99c.42-3.43-3-3.89-3-3.89ZM17.24,23.92c0,1.45-.5,2.53-1.95,2.53l-2.67-.15.61-4.13h2.35c.91,0,1.65.74,1.65,1.65v.09Z"/>
  <path class="cls-1" d="M37.96,20.2h-5.68l-2.35,10.89h2.82l.47-2.82,4.36-.19s2.96-.56,3.38-3.99c.42-3.43-3-3.89-3-3.89ZM38.36,23.92c0,1.45-.5,2.53-1.95,2.53l-2.67-.15.61-4.13h2.35c.91,0,1.65.74,1.65,1.65v.09Z"/>
  <path class="cls-1" d="M19.89,27.99l2.69-12.11h2.43l-.64,4.04s6.24-.52,5.58,1.64l-.89,6.43h-2.63l.99-5.44s-2.35-1.13-3.52,0c-.47,1.76-1.27,5.44-1.27,5.44h-2.73Z"/>
</svg>