<?xml version="1.0" encoding="UTF-8"?>
<svg id="Calque_1" data-name="Calque 1" xmlns="http://www.w3.org/2000/svg" viewBox="0 0 33.4 48.96">
  <defs>
    <style>
      .cls-1 {
        fill: #161615;
      }
    </style>
  </defs>
  <path class="cls-1" d="M24.25,33.96c-5.05,0-9.15-4.1-9.15-9.15s4.1-9.15,9.15-9.15,9.15,4.1,9.15,9.15-4.1,9.15-9.15,9.15ZM24.25,18.66c-3.39,0-6.15,2.76-6.15,6.15s2.76,6.15,6.15,6.15,6.15-2.76,6.15-6.15-2.76-6.15-6.15-6.15Z"/>
  <path class="cls-1" d="M18.1,18.1h-9.36C3.92,18.1,0,14.18,0,9.36v-.62C0,3.92,3.92,0,8.74,0h9.36v18.1ZM8.74,3c-3.17,0-5.74,2.58-5.74,5.74v.62c0,3.17,2.58,5.74,5.74,5.74h6.36V3h-6.36Z"/>
  <path class="cls-1" d="M18.1,33.86h-9.36c-4.82,0-8.74-3.92-8.74-8.74v-.62c0-4.82,3.92-8.74,8.74-8.74h9.36v18.1ZM8.74,18.76c-3.17,0-5.74,2.58-5.74,5.74v.62c0,3.17,2.58,5.74,5.74,5.74h6.36v-12.1h-6.36Z"/>
  <path class="cls-1" d="M9.05,48.96c-4.99,0-9.05-4.06-9.05-9.05s4.06-9.05,9.05-9.05h9.05v9.05c0,4.99-4.06,9.05-9.05,9.05ZM9.05,33.86c-3.34,0-6.05,2.71-6.05,6.05s2.71,6.05,6.05,6.05,6.05-2.71,6.05-6.05v-6.05h-6.05Z"/>
  <path class="cls-1" d="M24.46,18.1h-9.36V0h9.36c4.82,0,8.74,3.92,8.74,8.74v.62c0,4.82-3.92,8.74-8.74,8.74ZM18.1,15.1h6.36c3.17,0,5.74-2.58,5.74-5.74v-.62c0-3.17-2.58-5.74-5.74-5.74h-6.36v12.1Z"/>
</svg>