<?xml version="1.0" encoding="UTF-8"?>
<svg id="Calque_1" data-name="Calque 1" xmlns="http://www.w3.org/2000/svg" viewBox="0 0 49.95 28.99">
  <defs>
    <style>
      .cls-1 {
        fill: #161615;
      }
    </style>
  </defs>
  <polygon class="cls-1" points="25.1 28.61 17.99 28.61 0 .59 7.13 .59 25.1 28.61"/>
  <polygon class="cls-1" points="0 28.61 7.11 28.61 25.1 .59 17.97 .59 0 28.61"/>
  <path class="cls-1" d="M37.09,28.99c-.68,0-1.4,0-2.15-.02-1.55-.03-3.3-.05-5.25-.03l-2.53.03V.91l1.98-.42c.42-.09,10.45-2.15,16.48,2.96,3.07,2.6,4.52,6.45,4.3,11.43-.71,12.76-4.3,14.12-12.83,14.12ZM32.16,23.94c1.02,0,1.97.02,2.86.04,3.9.06,6.71.11,7.88-.8,1.12-.88,1.74-3.51,2.03-8.54.15-3.38-.68-5.8-2.54-7.37-2.85-2.41-7.57-2.4-10.23-2.15v18.83Z"/>
</svg>