<?xml version="1.0" encoding="UTF-8"?>
<svg id="Calque_2" data-name="Calque 2" xmlns="http://www.w3.org/2000/svg" viewBox="0 0 104.35 44.16">
  <defs>
    <style>
      .cls-1 {
        fill: #161615;
      }
    </style>
  </defs>
  <ellipse class="cls-1" cx="16.94" cy="9.57" rx="8.96" ry="2.9"/>
  <rect class="cls-1" x="40.3" y="25.77" width="2.53" height="9.57"/>
  <rect class="cls-1" x="42.64" y="31.1" width="1.89" height="6.58" transform="translate(77.98 -9.19) rotate(90)"/>
  <path class="cls-1" d="M35.16,35.76c-.04-.08-.11-.13-.19-.18,2.09-.57,3.64-2.6,3.64-5.03,0-2.88-2.16-5.21-4.83-5.21s-4.83,2.33-4.83,5.21c0,2.56,1.72,4.68,3.98,5.12,0,0-.02,0-.02,0,0,0,.56,2.13,4.5,2.34v-1.48s-1.9-.14-2.25-.77ZM30.85,30.55c0-1.75,1.31-3.16,2.93-3.16s2.93,1.42,2.93,3.16-1.31,3.16-2.93,3.16-2.93-1.42-2.93-3.16Z"/>
  <path class="cls-1" d="M7.98,26.89v4.79s5.55,2.38,11.62,2.03v-5.06s-5.81,1.06-11.62-1.76Z"/>
  <path class="cls-1" d="M26.29,27.39l1.06-1.06s-5.28-1.9-6.06.56.21,3.43.21,3.43l3.5,1.85s1.08,1.14.59,1.27-4.59,0-4.59,0l-.41,1.89s3.26.56,4.41.28,2.21-1.75,2.35-2.18.28-1.77-.28-2.19-3.45-2.04-3.73-2.82.13-.97.7-1.05,2.26,0,2.26,0Z"/>
  <path class="cls-1" d="M25.9,13.22s-3.9,1.97-8.61,1.83c-4.72-.14-9.3-1.83-9.3-1.83v4.43s3.25,2.6,8.31,2.25,9.42-1.13,9.6-2.46,0-4.22,0-4.22ZM11.04,16.85c-.23.49-.81.71-1.31.48-.49-.23-.71-.81-.48-1.31.23-.49.81-.71,1.31-.48.49.23.71.81.48,1.31Z"/>
  <path class="cls-1" d="M25.9,19.74s-3.9,1.97-8.61,1.83c-4.72-.14-9.3-1.83-9.3-1.83v4.43s3.25,2.6,8.31,2.25c5.07-.35,9.42-1.13,9.6-2.46s0-4.22,0-4.22ZM11.04,23.52c-.23.49-.81.71-1.31.48-.49-.23-.71-.81-.48-1.31.23-.49.81-.71,1.31-.48.49.23.71.81.48,1.31Z"/>
</svg>