<?xml version="1.0" encoding="UTF-8"?>
<svg id="Calque_2" data-name="Calque 2" xmlns="http://www.w3.org/2000/svg" viewBox="0 0 50 50">
  <defs>
    <style>
      .cls-1 {
        fill: #010201;
      }
    </style>
  </defs>
  <polygon class="cls-1" points="29.11 23.76 11.43 23.76 11.43 27.87 17.73 27.87 17.73 45.63 22.77 45.63 22.77 27.87 29.11 27.87 29.11 23.76"/>
  <path class="cls-1" d="M44.93,28.53v-4.36s-1.54-.68-3.56-.87c-2.72-.26-6.23-.03-8.34,1.7-.96.78-1.25.85-1.84,2.08-.14.48-.48,1.81-.48,2.42-.02,2.72,1.58,4.79,3.91,6.02.15.08.26.17.36.21.73.36,3.42,1.6,3.71,1.67s2.9,1.98,1.82,3.13c-1.21,1.27-2.61,1.31-2.61,1.31,0,0-3.91.22-7.04-1.96v5.09s5.45,1.31,7.04,1.09,4.36-.75,4.72-1.09c.16-.15,3.5-1.82,3.49-5.74-.4-4.06-3.85-5.53-3.85-5.53l-4.51-2.18s-1.38-.62-1.67-2.04c-.05-.42.18-.82.51-1.17.68-.73,1.66-1.11,2.65-1.12,1.17-.01,2.71.02,3.67.4,1.27.5,2.04.95,2.04.95Z"/>
</svg>