<?xml version="1.0" encoding="UTF-8"?>
<svg id="Calque_1" data-name="Calque 1" xmlns="http://www.w3.org/2000/svg" viewBox="0 0 42.05 50">
  <defs>
    <style>
      .cls-1 {
        fill: #010201;
      }
    </style>
  </defs>
  <path class="cls-1" d="M23.11,20.71c-2.38.48-4.84-.14-6.7-1.69-.56-.61-.65-.65-.85-.52-.34.18-.12.73,0,1.05.82,1.48,2.2,2.56,3.83,3.01,4.17.9,8.52.47,12.43-1.23,6.42-2.49,11.44-9.4,9.97-15.19C40.31.25,30.56-1.69,21.33,1.59c-5.78,1.95-11.12,5.01-15.71,9.02C.54,15.36-.26,19.5.06,21.23c1.18,6.14,9.65,10.14,13.05,13.1-.18.1-.33.18-.46.26-1.69.84-8.15,4.22-9.76,7.79-1.83,4.05.29,6.95,1.69,7.34,4.33,1.04,8.84-.79,11.23-4.55,2.01-3.08,2.38-6.96,1-10.37.4-.32.83-.61,1.28-.85.87-.51,1.69-1.02,2.42-1.4,2.5-1.17,5.23-1.78,8-1.77,5.8.68,6.95,4.3,6.73,5.83-.21,1.09-.88,2.05-1.84,2.61-.4.26-.54.34-.5.52.05.27.24.26.58.21,1.78-.56,3.04-2.17,3.16-4.03.18-3.57-3.23-7.5-9.26-7.46-1.81,0-3.6.36-5.27,1.05-.27.11-.53.23-.78.36h0c-.86.4-1.8.92-3.69,1.95-.72.4-1.46.8-2.16,1.18-.05-.05-.1-.11-.15-.16-3.73-3.99-10.63-6.8-10.34-12.15.11-1.95.78-7.07,13.25-13.29,10.26-5.06,18.43-3.66,19.84-.55,2.03,4.43-4.38,12.68-14.98,13.87ZM14.4,35.89l.29-.18c.86,2.88.1,6-1.99,8.16-1.93,2.1-4.61,2.89-5.77,2.22-1.25-.71-.76-3.82,1.61-6.03,1.4-1.26,2.91-2.39,4.52-3.38.28-.18.7-.41,1.19-.71.09-.05.13-.07.13-.07Z"/>
</svg>