<?xml version="1.0" encoding="UTF-8"?>
<svg id="Calque_1" data-name="Calque 1" xmlns="http://www.w3.org/2000/svg" viewBox="0 0 50 50">
  <defs>
    <style>
      .cls-1 {
        fill: #1d1d1b;
      }

      .cls-2 {
        fill: #f8d87e;
      }
    </style>
  </defs>
  <path class="cls-1" d="M28.71,1.73S8.61-2.96,3.63,14.85c-.58,2.08-.56,4.33.1,6.38,1.22,3.8,4.51,9.32,13.27,9.91,13.48.91,13.87-10.31,13.87-10.31l-11.07-.3,12.34-.45s.38,12.44-15.14,13.04c0,0-6.36-.76-9.42-3.79-1.24-1.23-2.52-2.91-3.59-4.69-2.15-3.59-2.54-8.25-1-12.26,1.3-3.38,3.41-7.54,7.78-9.74C17.75-.88,26.68.14,26.68.14c0,0,3.68,1.55,2.04,1.59h0Z"/>
  <path class="cls-1" d="M35.48,2.1l1.25,1.66s13.52,6.23,11.99,21.19c.12,1.83-.56,10.22-11.71,18.94-1.19.41-6.41,3.99-10.73,4.32-4.46,1-16.87,2.83-26.28-2.41,1.6,1.41,9.41,3.55,9.41,3.55,0,0,12.06,1.47,17.15,0,5.09-1.47,11.08-4.63,11.08-4.63,0,0,12.48-9.8,12.2-19.28.36-5.15,0-7.23,0-7.23,0,0-1.68-6.15-3.35-7.89s-5.79-5.48-5.79-5.48l-5.23-2.74h0Z"/>
  <circle class="cls-2" cx="33.67" cy="2.1" r="1.34"/>
</svg>