<?xml version="1.0" encoding="UTF-8"?>
<svg id="Calque_1" data-name="Calque 1" xmlns="http://www.w3.org/2000/svg" viewBox="0 0 268.71 225.43">
  <defs>
    <style>
      .cls-1 {
        fill: #f7d87f;
      }
    </style>
  </defs>
  <path class="cls-1" d="M154.31,7.78S46.25-13.33,19.53,66.96c-3.12,9.38-3,19.54.54,28.77,6.58,17.11,24.22,42.03,71.33,44.69,72.47,4.1,74.53-46.49,74.53-46.49l-59.48-1.37,66.32-2.05s2.05,56.07-81.36,58.8c0,0-34.19-3.42-50.6-17.09-6.67-5.56-13.56-13.1-19.3-21.15-11.55-16.18-13.67-37.18-5.4-55.26,6.98-15.26,18.31-34,41.8-43.93C95.39-3.97,143.37.62,143.37.62c0,0,19.75,7.01,10.94,7.17Z"/>
  <path class="cls-1" d="M190.67,9.45l6.74,7.49s72.67,28.09,64.43,95.52c.65,8.24-3,46.07-62.93,85.41-6.37,1.87-34.46,17.98-57.69,19.48-23.97,4.5-90.65,12.74-141.22-10.86,8.62,6.37,50.57,15.99,50.57,15.99,0,0,64.8,6.63,92.15,0s59.56-20.86,59.56-20.86c0,0,67.05-44.2,65.55-86.91,1.96-23.22.02-32.59.02-32.59,0,0-9.01-27.72-18.01-35.59s-31.09-24.72-31.09-24.72l-28.09-12.36Z"/>
</svg>