<?xml version="1.0" encoding="UTF-8"?>
<svg id="Calque_1" data-name="Calque 1" xmlns="http://www.w3.org/2000/svg" viewBox="0 0 267.13 225">
  <defs>
    <style>
      .cls-1 {
        fill: #1d1d1b;
      }

      .cls-2 {
        fill: #fff;
      }
    </style>
  </defs>
  <path class="cls-2" d="M153.4,7.8S45.98-13.37,19.42,67.13c-3.1,9.4-2.98,19.59.54,28.84,6.54,17.15,24.08,42.14,70.91,44.8,72.04,4.11,74.09-46.61,74.09-46.61l-59.13-1.37,65.93-2.06s2.04,56.21-80.88,58.95c0,0-33.99-3.43-50.3-17.13-6.63-5.57-13.48-13.13-19.19-21.2-11.48-16.22-13.59-37.28-5.37-55.4,6.94-15.3,18.2-34.09,41.55-44.04C94.83-3.98,142.53.62,142.53.62c0,0,19.63,7.03,10.88,7.19h0Z"/>
  <path class="cls-2" d="M189.55,8.47l6.7,7.51s72.24,28.16,64.05,95.77c.65,8.26-2.98,46.19-62.56,85.63-6.33,1.87-34.26,18.03-57.35,19.53-23.83,4.51-90.12,12.77-140.39-10.89,8.57,6.39,50.27,16.03,50.27,16.03,0,0,64.42,6.65,91.61,0,27.19-6.65,59.21-20.91,59.21-20.91,0,0,66.66-44.31,65.16-87.13,1.95-23.28.02-32.67.02-32.67,0,0-8.96-27.79-17.9-35.68s-30.91-24.78-30.91-24.78l-27.92-12.39h0Z"/>
  <ellipse class="cls-1" cx="171.76" cy="8.47" rx="6.15" ry="6.21"/>
</svg>