<?xml version="1.0" encoding="UTF-8"?>
<svg id="Calque_2" data-name="Calque 2" xmlns="http://www.w3.org/2000/svg" viewBox="0 0 32 32">
  <defs>
    <style>
      .cls-1 {
        fill: #1d1d1b;
      }
    </style>
  </defs>
  <polygon class="cls-1" points="2.85 30.96 2.15 30.25 7.26 25.13 12.73 25.13 18.06 10.1 20.93 18.41 26.03 4.52 31.33 19.73 30.39 20.06 26 7.49 20.9 21.39 18.04 13.12 13.43 26.13 7.68 26.13 2.85 30.96"/>
  <circle class="cls-1" cx="20.19" cy="5.57" r="1.07"/>
  <circle class="cls-1" cx="5.67" cy="12.48" r="1.25"/>
  <circle class="cls-1" cx="24.21" cy="1.5" r=".55"/>
  <path class="cls-1" d="M20.19,9.46c-2.18,0-3.95-1.77-3.95-3.95s1.77-3.95,3.95-3.95,3.95,1.77,3.95,3.95-1.77,3.95-3.95,3.95ZM20.19,2.55c-1.63,0-2.95,1.32-2.95,2.95s1.33,2.95,2.95,2.95,2.95-1.32,2.95-2.95-1.33-2.95-2.95-2.95Z"/>
  <path class="cls-1" d="M20.98,6.08l-.96-.96,3.37-4.35,1.53,1.79-3.93,3.52ZM23.42,2.35l-.49.64.58-.53-.09-.11Z"/>
  <rect class="cls-1" x="3.82" y="14.87" width="4.15" height="6.26"/>
  <path class="cls-1" d="M3.4,26.07h0c-.47-.12-.73-.62-.58-1.07l.95-2.77,1.91.07-1.3,3.28c-.16.39-.58.6-.98.5Z"/>
  <path class="cls-1" d="M2.87,15.96v2.72l-1.1.87s-1.1-.34-1.1-1c0-.73,2.21-2.6,2.21-2.6Z"/>
  <path class="cls-1" d="M7.97,19.3l3.27.92.94,3.54s0,.84-.61.96-1.22-.28-1.22-.28l-.7-2.63-2.21-.68.53-1.83Z"/>
  <path class="cls-1" d="M7.11,14.87l3.57-2.13s.99-.07,1.1.47,0,1.06,0,1.06l-3.97,2.3-.7-1.7Z"/>
</svg>