<?xml version="1.0" encoding="UTF-8"?>
<svg id="Calque_2" data-name="Calque 2" xmlns="http://www.w3.org/2000/svg" viewBox="0 0 32 32">
  <defs>
    <style>
      .cls-1 {
        fill: #1d1d1b;
      }
    </style>
  </defs>
  <path class="cls-1" d="M16.84,17.41c-2.95,0-5.36-2.4-5.36-5.36s2.4-5.36,5.36-5.36,5.36,2.4,5.36,5.36-2.4,5.36-5.36,5.36ZM16.84,7.69c-2.4,0-4.36,1.95-4.36,4.36s1.95,4.36,4.36,4.36,4.36-1.95,4.36-4.36-1.95-4.36-4.36-4.36Z"/>
  <rect class="cls-1" x="16.73" y="7.51" width=".65" height="1.04" rx=".33" ry=".33"/>
  <rect class="cls-1" x="16.19" y="11.5" width=".65" height="2.36" rx=".3" ry=".3" transform="translate(13.8 -7.96) rotate(45)"/>
  <rect class="cls-1" x="16.73" y="15.69" width=".65" height="1.04" rx=".33" ry=".33"/>
  <rect class="cls-1" x="19.62" y="8.7" width=".65" height="1.04" rx=".33" ry=".33" transform="translate(27.53 29.85) rotate(-135)"/>
  <rect class="cls-1" x="13.83" y="14.49" width=".65" height="1.04" rx=".33" ry=".33" transform="translate(13.56 35.64) rotate(-135)"/>
  <path class="cls-1" d="M17.69,21.1h-1.25c-.74,0-1.38-.5-1.57-1.21l-.18-.68c-.06-.22-.23-.39-.45-.44l-.26-.06c-.15-.04-.3-.02-.43.05l-.57.3c-.65.34-1.46.19-1.95-.35l-.78-.87c-.56-.63-.55-1.57.02-2.19.19-.21.25-.43.19-.64l-.03-.1c-.06-.22-.24-.39-.46-.44l-.73-.16c-.74-.17-1.26-.82-1.26-1.58v-1.36c0-.76.52-1.41,1.27-1.58l1.03-.23.21-.34-.56-1.01c-.36-.65-.23-1.47.32-1.97l.94-.87c.56-.52,1.42-.57,2.04-.13l.32.23c.16.11.35.14.54.09l.14-.04c.21-.06.37-.23.42-.43l.23-.86c.19-.71.83-1.2,1.56-1.2h1.2c.75,0,1.42.54,1.58,1.27l.12.54c.05.25.25.44.5.48l.2.03c.16.03.33-.01.46-.11l.17-.12c.62-.45,1.48-.41,2.05.12l1.11,1.02c.54.5.68,1.3.33,1.95l-.57,1.08.13.41,1.01.3c.68.2,1.16.84,1.16,1.55v1.24c0,.72-.49,1.36-1.18,1.56l-.51.14c-.22.06-.39.24-.44.46l-.04.18c-.04.16,0,.34.1.48l.18.26c.45.65.36,1.52-.2,2.07l-.96.95c-.63.62-1.64.62-2.27,0-.2-.2-.43-.26-.64-.2-.21.06-.38.22-.43.42l-.25.84c-.2.69-.84,1.17-1.55,1.17ZM13.84,17.68c.13,0,.26.02.39.05l.26.06c.57.14,1.02.59,1.17,1.16l.18.68c.07.27.32.46.6.46h1.25c.27,0,.52-.18.59-.44l.25-.84c.16-.54.59-.96,1.14-1.11.55-.15,1.15,0,1.55.41.28.28.67.28.91.04l.96-.95c.21-.21.25-.54.08-.79l-.18-.26c-.25-.36-.34-.82-.25-1.26l.04-.18c.13-.59.56-1.05,1.14-1.21l.51-.14c.27-.07.45-.32.45-.6v-1.24c0-.27-.18-.52-.44-.59l-1.52-.45-.43-1.32.77-1.45c.13-.25.08-.56-.13-.75l-1.1-1.01c-.22-.2-.55-.22-.78-.04l-.17.12c-.35.25-.79.36-1.22.29l-.2-.03c-.66-.11-1.17-.6-1.32-1.25l-.12-.54c-.06-.29-.31-.49-.6-.49h-1.2c-.28,0-.53.19-.6.46l-.23.86c-.14.54-.57.98-1.1,1.14l-.14.04c-.48.14-.99.06-1.4-.24l-.32-.23c-.24-.17-.56-.15-.78.05l-.94.87c-.21.19-.26.5-.12.75l.84,1.52-.73,1.2-1.44.32c-.28.06-.48.31-.48.6v1.36c0,.29.2.54.48.6l.73.16c.58.13,1.04.57,1.21,1.15l.03.1c.15.54,0,1.13-.38,1.54-.27.28-.27.64-.05.88l.78.87c.19.21.5.27.75.14l.57-.3c.23-.12.49-.18.75-.18Z"/>
  <path class="cls-1" d="M16.49,31.35c-3.06,0-3.17-.26-3.27-.5l-.14-.32.27-.3c.12-.21-.14-1.19-.55-2.07-.4-.17-1.7-.63-4.03-.8-.94-.07-1.66-.43-2.11-1.07-.71-1-.56-2.4-.45-3.03l-1.27-1.02.7-.63-1.15-.9.78-1.23c-.9-.43-2.17-1.19-2.25-2.03-.02-.22.02-.63.53-.96.82-.54,1.91-3.48,2.46-5.38-.35-.53-.71-1.85,1.05-4.65C9.22,3.02,12.39-.35,19.57.89c7.28,1.26,8.59,7.39,9.37,11.06.75,3.53-3.04,8-3.8,8.86l-.51,10.27-.45.02c-3.66.19-6.08.26-7.69.26ZM14.35,30.3c1.37.11,5.47,0,9.33-.18l.48-9.73.12-.13s4.39-4.77,3.68-8.1c-.78-3.64-1.95-9.14-8.56-10.28-6.57-1.14-9.41,1.79-11.5,5.12-1.48,2.36-1.25,3.4-1.03,3.6l.3.2-.12.33c-.15.53-1.5,5.25-2.95,6.2-.07.04-.08.07-.08.07.05.25,1.11.95,2.19,1.4l.54.23-.92,1.45,1.38,1.07-.71.64.85.68-.09.32s-.42,1.6.23,2.52c.28.39.73.61,1.37.65,3.1.22,4.5.94,4.56.97l.14.08.07.15c.29.6.84,1.86.72,2.74Z"/>
  <rect class="cls-1" x="19.62" y="14.51" width=".65" height="1.04" rx=".33" ry=".33" transform="translate(-4.79 18.51) rotate(-45)"/>
  <rect class="cls-1" x="13.83" y="8.72" width=".65" height="1.04" rx=".33" ry=".33" transform="translate(-2.39 12.72) rotate(-45)"/>
  <rect class="cls-1" x="19.62" y="8.7" width=".65" height="1.04" rx=".33" ry=".33" transform="translate(27.53 29.85) rotate(-135)"/>
  <rect class="cls-1" x="13.83" y="14.49" width=".65" height="1.04" rx=".33" ry=".33" transform="translate(13.56 35.64) rotate(-135)"/>
</svg>