<?xml version="1.0" encoding="UTF-8"?>
<svg id="Calque_2" data-name="Calque 2" xmlns="http://www.w3.org/2000/svg" viewBox="0 0 32.01 32.46">
  <defs>
    <style>
      .cls-1 {
        fill: #1d1d1b;
      }
    </style>
  </defs>
  <circle class="cls-1" cx="4.29" cy="27.54" r=".83"/>
  <circle class="cls-1" cx="21.31" cy="21.36" r=".83"/>
  <rect class="cls-1" x="15.44" y=".13" width=".96" height="3.84" rx=".48" ry=".48"/>
  <rect class="cls-1" x="6.35" y="0" width=".96" height="3.84" rx=".48" ry=".48" transform="translate(.64 5.39) rotate(-45)"/>
  <rect class="cls-1" x="24.59" y="0" width=".96" height="3.84" rx=".48" ry=".48" transform="translate(9.78 -18.04) rotate(48.18)"/>
  <path class="cls-1" d="M8.49,32.06l-2.44-2.44.71-.71,1.96,1.96c1.04-.5,2.68-1.55,2.38-2.32-.39-1.01-3.6-3.89-5.52-5.61-.54-.48-1.03-.93-1.43-1.29-.44-.41-1.11-.44-1.59-.08-1.47,1.09-1.55,1.49-1.56,1.51.26.5,1.5,1.81,1.95,2.26l-.71.71c-.18-.18-1.76-1.78-2.16-2.63-.31-.66.25-1.45,1.88-2.66.87-.64,2.07-.58,2.86.15.39.36.88.8,1.41,1.28,2.91,2.6,5.35,4.85,5.79,6,.76,1.99-2.82,3.56-3.23,3.73l-.31.13Z"/>
  <path class="cls-1" d="M22.72,32.46c-.59,0-1.3-.62-2.3-1.96-.64-.87-.58-2.07.15-2.86.36-.39.8-.88,1.28-1.42,2.6-2.91,4.85-5.35,5.99-5.78,1.98-.76,3.56,2.82,3.74,3.23l.13.31-2.44,2.44-.71-.71,1.96-1.96c-.5-1.04-1.55-2.67-2.32-2.38-1.01.39-3.89,3.6-5.61,5.52-.49.54-.93,1.04-1.29,1.43-.41.44-.44,1.11-.08,1.59,1.09,1.47,1.49,1.55,1.51,1.56.5-.26,1.81-1.5,2.26-1.95l.71.71c-.18.18-1.78,1.76-2.63,2.16-.11.05-.23.08-.35.08Z"/>
  <polygon class="cls-1" points="11.99 27.4 11.27 26.71 13.84 24.01 17.37 24.2 19.16 22.94 19.73 23.76 17.67 25.22 14.25 25.03 11.99 27.4"/>
  <rect class="cls-1" x="4.05" y="19.1" width="3.08" height=".93" transform="translate(-12.19 9.68) rotate(-45)"/>
  <path class="cls-1" d="M8.64,19.41h0c-.56,0-1.08-.22-1.47-.61l-1.1-1.1c-.81-.81-.81-2.13,0-2.95.81-.81,2.13-.81,2.95,0l1.11,1.11c.81.81.81,2.13,0,2.95h0c-.39.39-.92.61-1.47.61ZM7.54,15.13c-.28,0-.56.11-.77.32-.42.42-.42,1.11,0,1.53l1.11,1.1c.2.21.48.32.77.32h0c.29,0,.56-.11.77-.32h0c.42-.42.42-1.11,0-1.53l-1.11-1.11c-.21-.21-.49-.32-.77-.32Z"/>
  <path class="cls-1" d="M10.59,17.06c-.53,0-1.07-.2-1.47-.61l-1.72-1.72c-.81-.81-.81-2.13,0-2.95.81-.81,2.13-.81,2.95,0l1.72,1.72c.39.39.61.92.61,1.47s-.22,1.08-.61,1.47h0c-.41.41-.94.61-1.47.61ZM8.87,12.18c-.28,0-.56.11-.77.32-.42.42-.42,1.11,0,1.53l1.72,1.72c.42.42,1.11.42,1.53,0,.2-.21.32-.48.32-.77s-.11-.56-.32-.77l-1.72-1.72c-.21-.21-.49-.32-.77-.32Z"/>
  <path class="cls-1" d="M13.06,14.82c-.53,0-1.07-.2-1.47-.61l-2.48-2.48c-.81-.81-.81-2.13,0-2.95s2.13-.81,2.95,0l2.48,2.48c.39.39.61.92.61,1.47s-.22,1.08-.61,1.47h0c-.41.41-.94.61-1.47.61ZM10.59,9.17c-.28,0-.56.11-.77.32-.42.42-.42,1.11,0,1.53l2.48,2.48c.42.42,1.11.42,1.53,0h0c.2-.2.32-.48.32-.77s-.11-.56-.32-.77l-2.48-2.48c-.21-.21-.49-.32-.77-.32Z"/>
  <path class="cls-1" d="M15.12,12.39c-.56,0-1.08-.22-1.47-.61l-2.65-2.65c-.81-.81-.81-2.13,0-2.95.81-.81,2.13-.81,2.95,0l2.65,2.65c.39.39.61.92.61,1.47s-.22,1.08-.61,1.47h0c-.39.39-.92.61-1.47.61ZM12.47,6.58c-.28,0-.56.11-.77.32-.42.42-.42,1.11,0,1.53l2.65,2.65c.41.41,1.12.41,1.53,0h0c.2-.2.32-.48.32-.77s-.11-.56-.32-.77l-2.65-2.65c-.21-.21-.49-.32-.77-.32Z"/>
  <path class="cls-1" d="M15.16,9.32c-.3,0-.62-.05-.95-.19-.9-.37-1.45-2.34-1.6-2.94l-.08-.33,1.14-.81,4.94.82-1.08,2.4c-.05.05-1.07,1.05-2.37,1.05ZM13.67,6.28c.27.95.68,1.83.92,1.93.96.39,1.92-.36,2.17-.58l.42-.97-3.27-.54-.24.17Z"/>
  <path class="cls-1" d="M19.31,11.14l-.71-.71c.06-.06.15-.14.24-.23.51-.48,1.47-1.38,1.45-2.15,0-.27-.14-.53-.42-.77-.15-.16-.25-.21-.38-.21h-.02c-.77,0-1.99,1.25-2.46,1.72l-.14.14-.71-.71.13-.13c1.03-1.05,2.13-2.02,3.17-2.02.01,0,.03,0,.04,0,.41.01.78.18,1.06.5.45.38.71.89.72,1.46.03,1.22-1.14,2.31-1.76,2.9l-.22.21Z"/>
  <path class="cls-1" d="M20.97,13.82l-.71-.71c.06-.06.15-.14.24-.23.51-.48,1.47-1.38,1.45-2.15,0-.27-.14-.53-.42-.77-.15-.16-.25-.21-.38-.21h-.02c-.77,0-1.99,1.25-2.46,1.72l-.14.14-.71-.71.13-.14c1.05-1.06,2.14-2.06,3.22-2.02.41.01.78.18,1.06.5.45.38.71.89.72,1.46.03,1.22-1.14,2.31-1.77,2.9l-.22.21Z"/>
  <path class="cls-1" d="M22.79,16.58l-.71-.71c.06-.06.15-.14.24-.23.51-.48,1.47-1.38,1.45-2.15,0-.27-.14-.53-.42-.77-.15-.16-.25-.21-.38-.21,0,0-.01,0-.02,0-.77,0-1.99,1.25-2.46,1.72l-.14.14-.71-.71.13-.13c1.05-1.07,2.15-2.07,3.22-2.02.41.01.78.18,1.06.5.45.38.71.89.72,1.46.03,1.22-1.14,2.31-1.77,2.9l-.22.21Z"/>
  <path class="cls-1" d="M24.39,19.46l-.71-.71c.06-.06.15-.14.24-.23.51-.48,1.47-1.38,1.45-2.15,0-.27-.14-.53-.42-.77-.15-.16-.25-.21-.38-.21-.77.01-2.01,1.24-2.47,1.72l-.14.14-.71-.71.14-.14c1.03-1.05,2.13-2.01,3.17-2.01.02,0,.03,0,.04,0,.41.01.78.18,1.06.5.45.38.71.89.72,1.46.03,1.22-1.14,2.31-1.77,2.9l-.22.21Z"/>
  <rect class="cls-1" x="25.69" y="18.09" width="1.18" height="3.2" transform="translate(-6.23 24.35) rotate(-45)"/>
</svg>